<svg id="Layer_2" data-name="Layer 2" xmlns="http://www.w3.org/2000/svg" viewBox="0 0 33 33"><defs><style>.cls-1{fill:#fff;}</style></defs><path class="cls-1" d="M24.45,14.89H22.6a6.31,6.31,0,0,1-.14,3.92,5.93,5.93,0,0,1-4,3.7,6.27,6.27,0,0,1-6.1-1.23A6.06,6.06,0,0,1,10.43,15H8.5l0,8.28c0,1.16.87,1.14.87,1.14H23.42c1.18,0,1-1,1-1Z"/><circle class="cls-1" cx="16.53" cy="16.41" r="4.08"/><rect class="cls-1" x="20.2" y="8.47" width="4.22" height="4.19" rx="0.95"/><path class="cls-1" d="M27,0H6A6,6,0,0,0,0,6V27a6,6,0,0,0,6,6H27a6,6,0,0,0,6-6V6A6,6,0,0,0,27,0Zm-.24,23.8a2.94,2.94,0,0,1-2.94,2.94H9.18A2.94,2.94,0,0,1,6.24,23.8V9.06A2.94,2.94,0,0,1,9.18,6.12H23.8a2.94,2.94,0,0,1,2.94,2.94Z"/></svg>