<?xml version="1.0" encoding="utf-8"?>
<!-- Generator: Adobe Illustrator 26.0.3, SVG Export Plug-In . SVG Version: 6.00 Build 0)  -->
<svg version="1.1" id="Capa_1" xmlns="http://www.w3.org/2000/svg" xmlns:xlink="http://www.w3.org/1999/xlink" x="0px" y="0px"
	 viewBox="0 0 512 490.4" style="enable-background:new 0 0 512 490.4;" xml:space="preserve">
<style type="text/css">
	.st0{fill:#ADB8CA;}
</style>
<g id="Star">
	<g>
		<path class="st0" d="M397.9,488.1L256,399.3l-141.9,88.8c-5.2,3.3-11.8,3-16.8-0.6c-5-3.6-7.2-9.8-5.7-15.8l40.6-162.4L5.4,201.8
			c-4.7-3.9-6.5-10.3-4.6-16.1c1.9-5.8,7.1-9.9,13.2-10.3l165.5-11.6L242.1,8.5c4.6-11.3,23.2-11.3,27.8,0l62.6,155.3L498,175.3
			c6.1,0.4,11.3,4.5,13.2,10.3c1.9,5.8,0.1,12.2-4.6,16.1L379.8,309.3l40.6,162.4c1.5,5.9-0.8,12.2-5.7,15.8
			C409.6,491.2,403,491.3,397.9,488.1L397.9,488.1z"/>
	</g>
</g>
</svg>
