<svg id="Layer_2" data-name="Layer 2" xmlns="http://www.w3.org/2000/svg" viewBox="0 0 33 33"><defs><style>.cls-1{fill:#fff;}</style></defs><path class="cls-1" d="M27,0H6A6,6,0,0,0,0,6V27a6,6,0,0,0,6,6H27a6,6,0,0,0,6-6V6A6,6,0,0,0,27,0Zm-.33,11.24a16,16,0,0,1-1.38,7A14.3,14.3,0,0,1,17.5,25.8,14.74,14.74,0,0,1,3.82,24.56s4.61.55,7.64-2.23a5.26,5.26,0,0,1-4.88-3.59,4.84,4.84,0,0,0,2.2-.13s-3.83-.56-4-5.17A4,4,0,0,0,7.05,14a5.3,5.3,0,0,1-1.56-7,14.32,14.32,0,0,0,10.82,5.52A5.54,5.54,0,0,1,18,7.38a5.31,5.31,0,0,1,4.83-1.07,4.73,4.73,0,0,1,2.43,1.52,12.07,12.07,0,0,0,3.29-1.32,4.94,4.94,0,0,1-2.25,2.85,9.46,9.46,0,0,0,2.95-.8A9.07,9.07,0,0,1,26.65,11.24Z"/></svg>